<?xml version="1.0" encoding="utf-8"?>
<!-- Generator: Adobe Illustrator 25.2.3, SVG Export Plug-In . SVG Version: 6.00 Build 0)  -->
<svg version="1.1" id="Layer_1" xmlns="http://www.w3.org/2000/svg" xmlns:xlink="http://www.w3.org/1999/xlink" x="0px" y="0px"
	 viewBox="0 0 651.3 286.2" style="enable-background:new 0 0 651.3 286.2;" xml:space="preserve">
<style type="text/css">
	.st0{fill:#00A9E0;}
	.st1{fill:#FFFFFF;}
</style>
<g id="Logos">
	<path class="st0" d="M143.1,0h365c79,0,143.1,64.1,143.1,143.1v0c0,79-64.1,143.1-143.1,143.1h-365C64.1,286.2,0,222.2,0,143.1v0
		C0,64.1,64.1,0,143.1,0z"/>
	<path class="st1" d="M131.8,164.1L88.3,92.7h41.6l20.6,36.3h1.3l20.7-36.4h40.7l-43.5,71.5v30h-38L131.8,164.1z"/>
	<path class="st1" d="M202.2,143.4c0-33.9,23.2-54.5,60-54.5s60,20.6,60,54.5s-23.2,54.5-60,54.5S202.2,177.3,202.2,143.4z
		 M285.2,143.4c0-14.9-8.7-23.5-23-23.5s-22.9,8.6-22.9,23.5s8.6,23.5,22.9,23.5C276.5,166.9,285.2,158.3,285.2,143.4L285.2,143.4z"
		/>
	<path class="st1" d="M328.3,143.7c0-33.9,24.2-53.9,60-53.9c17.5,0,29.9,4.2,39.6,9.7v34.2h-0.3c-11.9-8-22.2-12.6-34.9-12.6
		c-15.4,0-26.4,8-26.4,22.3c0,14.8,11.3,22.2,26.2,22.2c13.2,0,23.8-4.5,35.1-12.8h0.3v34.6c-8,4.6-22,9.6-39.9,9.6
		C351,197,328.3,177.6,328.3,143.7z"/>
	<path class="st1" d="M434.2,143.4c0-33.9,23.2-54.5,60-54.5s60,20.6,60,54.5s-23.2,54.5-60,54.5S434.2,177.3,434.2,143.4z
		 M517.2,143.4c0-14.9-8.7-23.5-23-23.5s-22.9,8.6-22.9,23.5s8.5,23.5,22.9,23.5S517.2,158.3,517.2,143.4L517.2,143.4z"/>
</g>
</svg>
